solid exported
	facet normal 0 1 6.123233927641965e-17
		outer loop
			vertex -150 9.184850891462946e-15 -150
			vertex -150 -9.184850891462946e-15 150
			vertex 150 9.184850891462946e-15 -150
		endloop
	endfacet
	facet normal 0 1 6.123233927641965e-17
		outer loop
			vertex -150 -9.184850891462946e-15 150
			vertex 150 -9.184850891462946e-15 150
			vertex 150 9.184850891462946e-15 -150
		endloop
	endfacet
	facet normal 1 0 0
		outer loop
			vertex 50 50 0
			vertex 50 0 0
			vertex 50 50 -50
		endloop
	endfacet
	facet normal 1 0 0
		outer loop
			vertex 50 0 0
			vertex 50 0 -50
			vertex 50 50 -50
		endloop
	endfacet
	facet normal -1 0 0
		outer loop
			vertex 0 50 -50
			vertex 0 0 -50
			vertex 0 50 0
		endloop
	endfacet
	facet normal -1 0 0
		outer loop
			vertex 0 0 -50
			vertex 0 0 0
			vertex 0 50 0
		endloop
	endfacet
	facet normal 0 1 0
		outer loop
			vertex 0 50 -50
			vertex 0 50 0
			vertex 50 50 -50
		endloop
	endfacet
	facet normal 0 1 0
		outer loop
			vertex 0 50 0
			vertex 50 50 0
			vertex 50 50 -50
		endloop
	endfacet
	facet normal 0 -1 0
		outer loop
			vertex 0 0 0
			vertex 0 0 -50
			vertex 50 0 0
		endloop
	endfacet
	facet normal 0 -1 0
		outer loop
			vertex 0 0 -50
			vertex 50 0 -50
			vertex 50 0 0
		endloop
	endfacet
	facet normal 0 0 1
		outer loop
			vertex 0 50 0
			vertex 0 0 0
			vertex 50 50 0
		endloop
	endfacet
	facet normal 0 0 1
		outer loop
			vertex 0 0 0
			vertex 50 0 0
			vertex 50 50 0
		endloop
	endfacet
	facet normal 0 0 -1
		outer loop
			vertex 50 50 -50
			vertex 50 0 -50
			vertex 0 50 -50
		endloop
	endfacet
	facet normal 0 0 -1
		outer loop
			vertex 50 0 -50
			vertex 0 0 -50
			vertex 0 50 -50
		endloop
	endfacet
	facet normal 0.09801707827058409 0 0.9951847327844707
		outer loop
			vertex -25 50 100
			vertex -25 0 100
			vertex -20.122742176055908 50 99.51963233947754
		endloop
	endfacet
	facet normal 0.09801707827058409 0 0.9951847327844707
		outer loop
			vertex -25 0 100
			vertex -20.122742176055908 0 99.51963233947754
			vertex -20.122742176055908 50 99.51963233947754
		endloop
	endfacet
	facet normal 0.29028463445272545 0 0.9569403487159728
		outer loop
			vertex -20.122742176055908 50 99.51963233947754
			vertex -20.122742176055908 0 99.51963233947754
			vertex -15.432913780212402 50 98.09698867797852
		endloop
	endfacet
	facet normal 0.29028463445272545 0 0.9569403487159728
		outer loop
			vertex -20.122742176055908 0 99.51963233947754
			vertex -15.432913780212402 0 98.09698867797852
			vertex -15.432913780212402 50 98.09698867797852
		endloop
	endfacet
	facet normal 0.4713967045882464 0 0.8819212815797913
		outer loop
			vertex -15.432913780212402 50 98.09698867797852
			vertex -15.432913780212402 0 98.09698867797852
			vertex -11.11074447631836 50 95.78674125671387
		endloop
	endfacet
	facet normal 0.4713967045882464 0 0.8819212815797913
		outer loop
			vertex -15.432913780212402 0 98.09698867797852
			vertex -11.11074447631836 0 95.78674125671387
			vertex -11.11074447631836 50 95.78674125671387
		endloop
	endfacet
	facet normal 0.6343933706933789 0 0.7730103823496122
		outer loop
			vertex -11.11074447631836 50 95.78674125671387
			vertex -11.11074447631836 0 95.78674125671387
			vertex -7.322330474853516 50 92.67766952514648
		endloop
	endfacet
	facet normal 0.6343933706933789 0 0.7730103823496122
		outer loop
			vertex -11.11074447631836 0 95.78674125671387
			vertex -7.322330474853516 0 92.67766952514648
			vertex -7.322330474853516 50 92.67766952514648
		endloop
	endfacet
	facet normal 0.7730103823496122 0 0.6343933706933789
		outer loop
			vertex -7.322330474853516 50 92.67766952514648
			vertex -7.322330474853516 0 92.67766952514648
			vertex -4.213258743286133 50 88.88925552368164
		endloop
	endfacet
	facet normal 0.7730103823496122 0 0.6343933706933789
		outer loop
			vertex -7.322330474853516 0 92.67766952514648
			vertex -4.213258743286133 0 88.88925552368164
			vertex -4.213258743286133 50 88.88925552368164
		endloop
	endfacet
	facet normal 0.8819212815797913 0 0.4713967045882464
		outer loop
			vertex -4.213258743286133 50 88.88925552368164
			vertex -4.213258743286133 0 88.88925552368164
			vertex -1.9030113220214844 50 84.5670862197876
		endloop
	endfacet
	facet normal 0.8819212815797913 0 0.4713967045882464
		outer loop
			vertex -4.213258743286133 0 88.88925552368164
			vertex -1.9030113220214844 0 84.5670862197876
			vertex -1.9030113220214844 50 84.5670862197876
		endloop
	endfacet
	facet normal 0.9569403487159728 0 0.29028463445272545
		outer loop
			vertex -1.9030113220214844 50 84.5670862197876
			vertex -1.9030113220214844 0 84.5670862197876
			vertex -0.48036766052246094 50 79.87725782394409
		endloop
	endfacet
	facet normal 0.9569403487159728 0 0.29028463445272545
		outer loop
			vertex -1.9030113220214844 0 84.5670862197876
			vertex -0.48036766052246094 0 79.87725782394409
			vertex -0.48036766052246094 50 79.87725782394409
		endloop
	endfacet
	facet normal 0.9951847327844706 0 0.0980170782705841
		outer loop
			vertex -0.48036766052246094 50 79.87725782394409
			vertex -0.48036766052246094 0 79.87725782394409
			vertex 0 50 75
		endloop
	endfacet
	facet normal 0.9951847327844706 0 0.0980170782705841
		outer loop
			vertex -0.48036766052246094 0 79.87725782394409
			vertex 0 0 75
			vertex 0 50 75
		endloop
	endfacet
	facet normal 0.9951847327844706 0 -0.09801707827058403
		outer loop
			vertex 0 50 75
			vertex 0 0 75
			vertex -0.48036766052246094 50 70.12274217605591
		endloop
	endfacet
	facet normal 0.9951847327844706 0 -0.09801707827058403
		outer loop
			vertex 0 0 75
			vertex -0.48036766052246094 0 70.12274217605591
			vertex -0.48036766052246094 50 70.12274217605591
		endloop
	endfacet
	facet normal 0.9569403487159728 0 -0.29028463445272545
		outer loop
			vertex -0.48036766052246094 50 70.12274217605591
			vertex -0.48036766052246094 0 70.12274217605591
			vertex -1.9030113220214844 50 65.4329137802124
		endloop
	endfacet
	facet normal 0.9569403487159728 0 -0.29028463445272545
		outer loop
			vertex -0.48036766052246094 0 70.12274217605591
			vertex -1.9030113220214844 0 65.4329137802124
			vertex -1.9030113220214844 50 65.4329137802124
		endloop
	endfacet
	facet normal 0.8819212815797913 0 -0.4713967045882464
		outer loop
			vertex -1.9030113220214844 50 65.4329137802124
			vertex -1.9030113220214844 0 65.4329137802124
			vertex -4.213258743286133 50 61.11074447631836
		endloop
	endfacet
	facet normal 0.8819212815797913 0 -0.4713967045882464
		outer loop
			vertex -1.9030113220214844 0 65.4329137802124
			vertex -4.213258743286133 0 61.11074447631836
			vertex -4.213258743286133 50 61.11074447631836
		endloop
	endfacet
	facet normal 0.7730103823496122 0 -0.6343933706933789
		outer loop
			vertex -4.213258743286133 50 61.11074447631836
			vertex -4.213258743286133 0 61.11074447631836
			vertex -7.322330474853516 50 57.322330474853516
		endloop
	endfacet
	facet normal 0.7730103823496122 0 -0.6343933706933789
		outer loop
			vertex -4.213258743286133 0 61.11074447631836
			vertex -7.322330474853516 0 57.322330474853516
			vertex -7.322330474853516 50 57.322330474853516
		endloop
	endfacet
	facet normal 0.6343933706933789 0 -0.7730103823496122
		outer loop
			vertex -7.322330474853516 50 57.322330474853516
			vertex -7.322330474853516 0 57.322330474853516
			vertex -11.11074447631836 50 54.21325874328613
		endloop
	endfacet
	facet normal 0.6343933706933789 0 -0.7730103823496122
		outer loop
			vertex -7.322330474853516 0 57.322330474853516
			vertex -11.11074447631836 0 54.21325874328613
			vertex -11.11074447631836 50 54.21325874328613
		endloop
	endfacet
	facet normal 0.4713967045882464 0 -0.8819212815797913
		outer loop
			vertex -11.11074447631836 50 54.21325874328613
			vertex -11.11074447631836 0 54.21325874328613
			vertex -15.432913780212402 50 51.903011322021484
		endloop
	endfacet
	facet normal 0.4713967045882464 0 -0.8819212815797913
		outer loop
			vertex -11.11074447631836 0 54.21325874328613
			vertex -15.432913780212402 0 51.903011322021484
			vertex -15.432913780212402 50 51.903011322021484
		endloop
	endfacet
	facet normal 0.29028463445272545 0 -0.9569403487159728
		outer loop
			vertex -15.432913780212402 50 51.903011322021484
			vertex -15.432913780212402 0 51.903011322021484
			vertex -20.122742176055908 50 50.48036766052246
		endloop
	endfacet
	facet normal 0.29028463445272545 0 -0.9569403487159728
		outer loop
			vertex -15.432913780212402 0 51.903011322021484
			vertex -20.122742176055908 0 50.48036766052246
			vertex -20.122742176055908 50 50.48036766052246
		endloop
	endfacet
	facet normal 0.09801707827058412 0 -0.9951847327844706
		outer loop
			vertex -20.122742176055908 50 50.48036766052246
			vertex -20.122742176055908 0 50.48036766052246
			vertex -24.999999999999996 50 50
		endloop
	endfacet
	facet normal 0.09801707827058412 0 -0.9951847327844706
		outer loop
			vertex -20.122742176055908 0 50.48036766052246
			vertex -24.999999999999996 0 50
			vertex -24.999999999999996 50 50
		endloop
	endfacet
	facet normal -0.09801707827058402 0 -0.9951847327844707
		outer loop
			vertex -24.999999999999996 50 50
			vertex -24.999999999999996 0 50
			vertex -29.877257823944092 50 50.48036766052246
		endloop
	endfacet
	facet normal -0.09801707827058402 0 -0.9951847327844707
		outer loop
			vertex -24.999999999999996 0 50
			vertex -29.877257823944092 0 50.48036766052246
			vertex -29.877257823944092 50 50.48036766052246
		endloop
	endfacet
	facet normal -0.29028463445272545 0 -0.9569403487159728
		outer loop
			vertex -29.877257823944092 50 50.48036766052246
			vertex -29.877257823944092 0 50.48036766052246
			vertex -34.5670862197876 50 51.903011322021484
		endloop
	endfacet
	facet normal -0.29028463445272545 0 -0.9569403487159728
		outer loop
			vertex -29.877257823944092 0 50.48036766052246
			vertex -34.5670862197876 0 51.903011322021484
			vertex -34.5670862197876 50 51.903011322021484
		endloop
	endfacet
	facet normal -0.4713967045882464 0 -0.8819212815797913
		outer loop
			vertex -34.5670862197876 50 51.903011322021484
			vertex -34.5670862197876 0 51.903011322021484
			vertex -38.88925552368164 50 54.21325874328613
		endloop
	endfacet
	facet normal -0.4713967045882464 0 -0.8819212815797913
		outer loop
			vertex -34.5670862197876 0 51.903011322021484
			vertex -38.88925552368164 0 54.21325874328613
			vertex -38.88925552368164 50 54.21325874328613
		endloop
	endfacet
	facet normal -0.6343933706933789 0 -0.7730103823496122
		outer loop
			vertex -38.88925552368164 50 54.21325874328613
			vertex -38.88925552368164 0 54.21325874328613
			vertex -42.677669525146484 50 57.322330474853516
		endloop
	endfacet
	facet normal -0.6343933706933789 0 -0.7730103823496122
		outer loop
			vertex -38.88925552368164 0 54.21325874328613
			vertex -42.677669525146484 0 57.322330474853516
			vertex -42.677669525146484 50 57.322330474853516
		endloop
	endfacet
	facet normal -0.7730103823496122 0 -0.6343933706933789
		outer loop
			vertex -42.677669525146484 50 57.322330474853516
			vertex -42.677669525146484 0 57.322330474853516
			vertex -45.78674125671387 50 61.11074447631836
		endloop
	endfacet
	facet normal -0.7730103823496122 0 -0.6343933706933789
		outer loop
			vertex -42.677669525146484 0 57.322330474853516
			vertex -45.78674125671387 0 61.11074447631836
			vertex -45.78674125671387 50 61.11074447631836
		endloop
	endfacet
	facet normal -0.8819212815797913 0 -0.4713967045882464
		outer loop
			vertex -45.78674125671387 50 61.11074447631836
			vertex -45.78674125671387 0 61.11074447631836
			vertex -48.096988677978516 50 65.4329137802124
		endloop
	endfacet
	facet normal -0.8819212815797913 0 -0.4713967045882464
		outer loop
			vertex -45.78674125671387 0 61.11074447631836
			vertex -48.096988677978516 0 65.4329137802124
			vertex -48.096988677978516 50 65.4329137802124
		endloop
	endfacet
	facet normal -0.9569403487159728 0 -0.29028463445272545
		outer loop
			vertex -48.096988677978516 50 65.4329137802124
			vertex -48.096988677978516 0 65.4329137802124
			vertex -49.51963233947754 50 70.12274217605591
		endloop
	endfacet
	facet normal -0.9569403487159728 0 -0.29028463445272545
		outer loop
			vertex -48.096988677978516 0 65.4329137802124
			vertex -49.51963233947754 0 70.12274217605591
			vertex -49.51963233947754 50 70.12274217605591
		endloop
	endfacet
	facet normal -0.9951847327844706 0 -0.09801707827058416
		outer loop
			vertex -49.51963233947754 50 70.12274217605591
			vertex -49.51963233947754 0 70.12274217605591
			vertex -50 50 75
		endloop
	endfacet
	facet normal -0.9951847327844706 0 -0.09801707827058416
		outer loop
			vertex -49.51963233947754 0 70.12274217605591
			vertex -50 0 75
			vertex -50 50 75
		endloop
	endfacet
	facet normal -0.9951847327844706 0 0.09801707827058398
		outer loop
			vertex -50 50 75
			vertex -50 0 75
			vertex -49.51963233947754 50 79.87725782394409
		endloop
	endfacet
	facet normal -0.9951847327844706 0 0.09801707827058398
		outer loop
			vertex -50 0 75
			vertex -49.51963233947754 0 79.87725782394409
			vertex -49.51963233947754 50 79.87725782394409
		endloop
	endfacet
	facet normal -0.9569403487159728 0 0.29028463445272545
		outer loop
			vertex -49.51963233947754 50 79.87725782394409
			vertex -49.51963233947754 0 79.87725782394409
			vertex -48.096988677978516 50 84.5670862197876
		endloop
	endfacet
	facet normal -0.9569403487159728 0 0.29028463445272545
		outer loop
			vertex -49.51963233947754 0 79.87725782394409
			vertex -48.096988677978516 0 84.5670862197876
			vertex -48.096988677978516 50 84.5670862197876
		endloop
	endfacet
	facet normal -0.8819212815797913 0 0.4713967045882464
		outer loop
			vertex -48.096988677978516 50 84.5670862197876
			vertex -48.096988677978516 0 84.5670862197876
			vertex -45.78674125671387 50 88.88925552368164
		endloop
	endfacet
	facet normal -0.8819212815797913 0 0.4713967045882464
		outer loop
			vertex -48.096988677978516 0 84.5670862197876
			vertex -45.78674125671387 0 88.88925552368164
			vertex -45.78674125671387 50 88.88925552368164
		endloop
	endfacet
	facet normal -0.7730103823496122 0 0.6343933706933789
		outer loop
			vertex -45.78674125671387 50 88.88925552368164
			vertex -45.78674125671387 0 88.88925552368164
			vertex -42.677669525146484 50 92.67766952514648
		endloop
	endfacet
	facet normal -0.7730103823496122 0 0.6343933706933789
		outer loop
			vertex -45.78674125671387 0 88.88925552368164
			vertex -42.677669525146484 0 92.67766952514648
			vertex -42.677669525146484 50 92.67766952514648
		endloop
	endfacet
	facet normal -0.6343933706933789 0 0.7730103823496122
		outer loop
			vertex -42.677669525146484 50 92.67766952514648
			vertex -42.677669525146484 0 92.67766952514648
			vertex -38.88925552368164 50 95.78674125671387
		endloop
	endfacet
	facet normal -0.6343933706933789 0 0.7730103823496122
		outer loop
			vertex -42.677669525146484 0 92.67766952514648
			vertex -38.88925552368164 0 95.78674125671387
			vertex -38.88925552368164 50 95.78674125671387
		endloop
	endfacet
	facet normal -0.4713967045882464 0 0.8819212815797913
		outer loop
			vertex -38.88925552368164 50 95.78674125671387
			vertex -38.88925552368164 0 95.78674125671387
			vertex -34.5670862197876 50 98.09698867797852
		endloop
	endfacet
	facet normal -0.4713967045882464 0 0.8819212815797913
		outer loop
			vertex -38.88925552368164 0 95.78674125671387
			vertex -34.5670862197876 0 98.09698867797852
			vertex -34.5670862197876 50 98.09698867797852
		endloop
	endfacet
	facet normal -0.29028463445272545 0 0.9569403487159728
		outer loop
			vertex -34.5670862197876 50 98.09698867797852
			vertex -34.5670862197876 0 98.09698867797852
			vertex -29.877257823944092 50 99.51963233947754
		endloop
	endfacet
	facet normal -0.29028463445272545 0 0.9569403487159728
		outer loop
			vertex -34.5670862197876 0 98.09698867797852
			vertex -29.877257823944092 0 99.51963233947754
			vertex -29.877257823944092 50 99.51963233947754
		endloop
	endfacet
	facet normal -0.09801707827058422 0 0.9951847327844707
		outer loop
			vertex -29.877257823944092 50 99.51963233947754
			vertex -29.877257823944092 0 99.51963233947754
			vertex -25.000000000000007 50 100
		endloop
	endfacet
	facet normal -0.09801707827058422 0 0.9951847327844707
		outer loop
			vertex -29.877257823944092 0 99.51963233947754
			vertex -25.000000000000007 0 100
			vertex -25.000000000000007 50 100
		endloop
	endfacet
	facet normal 0 1 0
		outer loop
			vertex -25 50 100
			vertex -20.122742176055908 50 99.51963233947754
			vertex -25 50 75
		endloop
	endfacet
	facet normal 0 1 0
		outer loop
			vertex -20.122742176055908 50 99.51963233947754
			vertex -15.432913780212402 50 98.09698867797852
			vertex -25 50 75
		endloop
	endfacet
	facet normal 0 1 0
		outer loop
			vertex -15.432913780212402 50 98.09698867797852
			vertex -11.11074447631836 50 95.78674125671387
			vertex -25 50 75
		endloop
	endfacet
	facet normal 0 1 0
		outer loop
			vertex -11.11074447631836 50 95.78674125671387
			vertex -7.322330474853516 50 92.67766952514648
			vertex -25 50 75
		endloop
	endfacet
	facet normal 0 1 0
		outer loop
			vertex -7.322330474853516 50 92.67766952514648
			vertex -4.213258743286133 50 88.88925552368164
			vertex -25 50 75
		endloop
	endfacet
	facet normal 0 1 0
		outer loop
			vertex -4.213258743286133 50 88.88925552368164
			vertex -1.9030113220214844 50 84.5670862197876
			vertex -25 50 75
		endloop
	endfacet
	facet normal 0 1 0
		outer loop
			vertex -1.9030113220214844 50 84.5670862197876
			vertex -0.48036766052246094 50 79.87725782394409
			vertex -25 50 75
		endloop
	endfacet
	facet normal 0 1 0
		outer loop
			vertex -0.48036766052246094 50 79.87725782394409
			vertex 0 50 75
			vertex -25 50 75
		endloop
	endfacet
	facet normal 0 1 0
		outer loop
			vertex 0 50 75
			vertex -0.48036766052246094 50 70.12274217605591
			vertex -25 50 75
		endloop
	endfacet
	facet normal 0 1 0
		outer loop
			vertex -0.48036766052246094 50 70.12274217605591
			vertex -1.9030113220214844 50 65.4329137802124
			vertex -25 50 75
		endloop
	endfacet
	facet normal 0 1 0
		outer loop
			vertex -1.9030113220214844 50 65.4329137802124
			vertex -4.213258743286133 50 61.11074447631836
			vertex -25 50 75
		endloop
	endfacet
	facet normal 0 1 0
		outer loop
			vertex -4.213258743286133 50 61.11074447631836
			vertex -7.322330474853516 50 57.322330474853516
			vertex -25 50 75
		endloop
	endfacet
	facet normal 0 1 0
		outer loop
			vertex -7.322330474853516 50 57.322330474853516
			vertex -11.11074447631836 50 54.21325874328613
			vertex -25 50 75
		endloop
	endfacet
	facet normal 0 1 0
		outer loop
			vertex -11.11074447631836 50 54.21325874328613
			vertex -15.432913780212402 50 51.903011322021484
			vertex -25 50 75
		endloop
	endfacet
	facet normal 0 1 0
		outer loop
			vertex -15.432913780212402 50 51.903011322021484
			vertex -20.122742176055908 50 50.48036766052246
			vertex -25 50 75
		endloop
	endfacet
	facet normal 0 1 0
		outer loop
			vertex -20.122742176055908 50 50.48036766052246
			vertex -24.999999999999996 50 50
			vertex -25 50 75
		endloop
	endfacet
	facet normal 0 1 0
		outer loop
			vertex -24.999999999999996 50 50
			vertex -29.877257823944092 50 50.48036766052246
			vertex -25 50 75
		endloop
	endfacet
	facet normal 0 1 0
		outer loop
			vertex -29.877257823944092 50 50.48036766052246
			vertex -34.5670862197876 50 51.903011322021484
			vertex -25 50 75
		endloop
	endfacet
	facet normal 0 1 0
		outer loop
			vertex -34.5670862197876 50 51.903011322021484
			vertex -38.88925552368164 50 54.21325874328613
			vertex -25 50 75
		endloop
	endfacet
	facet normal 0 1 0
		outer loop
			vertex -38.88925552368164 50 54.21325874328613
			vertex -42.677669525146484 50 57.322330474853516
			vertex -25 50 75
		endloop
	endfacet
	facet normal 0 1 0
		outer loop
			vertex -42.677669525146484 50 57.322330474853516
			vertex -45.78674125671387 50 61.11074447631836
			vertex -25 50 75
		endloop
	endfacet
	facet normal 0 1 0
		outer loop
			vertex -45.78674125671387 50 61.11074447631836
			vertex -48.096988677978516 50 65.4329137802124
			vertex -25 50 75
		endloop
	endfacet
	facet normal 0 1 0
		outer loop
			vertex -48.096988677978516 50 65.4329137802124
			vertex -49.51963233947754 50 70.12274217605591
			vertex -25 50 75
		endloop
	endfacet
	facet normal 0 1 0
		outer loop
			vertex -49.51963233947754 50 70.12274217605591
			vertex -50 50 75
			vertex -25 50 75
		endloop
	endfacet
	facet normal 0 1 0
		outer loop
			vertex -50 50 75
			vertex -49.51963233947754 50 79.87725782394409
			vertex -25 50 75
		endloop
	endfacet
	facet normal 0 1 0
		outer loop
			vertex -49.51963233947754 50 79.87725782394409
			vertex -48.096988677978516 50 84.5670862197876
			vertex -25 50 75
		endloop
	endfacet
	facet normal 0 1 0
		outer loop
			vertex -48.096988677978516 50 84.5670862197876
			vertex -45.78674125671387 50 88.88925552368164
			vertex -25 50 75
		endloop
	endfacet
	facet normal 0 1 0
		outer loop
			vertex -45.78674125671387 50 88.88925552368164
			vertex -42.677669525146484 50 92.67766952514648
			vertex -25 50 75
		endloop
	endfacet
	facet normal 0 1 0
		outer loop
			vertex -42.677669525146484 50 92.67766952514648
			vertex -38.88925552368164 50 95.78674125671387
			vertex -25 50 75
		endloop
	endfacet
	facet normal 0 1 0
		outer loop
			vertex -38.88925552368164 50 95.78674125671387
			vertex -34.5670862197876 50 98.09698867797852
			vertex -25 50 75
		endloop
	endfacet
	facet normal 0 1 0
		outer loop
			vertex -34.5670862197876 50 98.09698867797852
			vertex -29.877257823944092 50 99.51963233947754
			vertex -25 50 75
		endloop
	endfacet
	facet normal 0 1 0
		outer loop
			vertex -29.877257823944092 50 99.51963233947754
			vertex -25.000000000000007 50 100
			vertex -25 50 75
		endloop
	endfacet
	facet normal 0 -1 0
		outer loop
			vertex -20.122742176055908 0 99.51963233947754
			vertex -25 0 100
			vertex -25 0 75
		endloop
	endfacet
	facet normal 0 -1 0
		outer loop
			vertex -15.432913780212402 0 98.09698867797852
			vertex -20.122742176055908 0 99.51963233947754
			vertex -25 0 75
		endloop
	endfacet
	facet normal 0 -1 0
		outer loop
			vertex -11.11074447631836 0 95.78674125671387
			vertex -15.432913780212402 0 98.09698867797852
			vertex -25 0 75
		endloop
	endfacet
	facet normal 0 -1 0
		outer loop
			vertex -7.322330474853516 0 92.67766952514648
			vertex -11.11074447631836 0 95.78674125671387
			vertex -25 0 75
		endloop
	endfacet
	facet normal 0 -1 0
		outer loop
			vertex -4.213258743286133 0 88.88925552368164
			vertex -7.322330474853516 0 92.67766952514648
			vertex -25 0 75
		endloop
	endfacet
	facet normal 0 -1 0
		outer loop
			vertex -1.9030113220214844 0 84.5670862197876
			vertex -4.213258743286133 0 88.88925552368164
			vertex -25 0 75
		endloop
	endfacet
	facet normal 0 -1 0
		outer loop
			vertex -0.48036766052246094 0 79.87725782394409
			vertex -1.9030113220214844 0 84.5670862197876
			vertex -25 0 75
		endloop
	endfacet
	facet normal 0 -1 0
		outer loop
			vertex 0 0 75
			vertex -0.48036766052246094 0 79.87725782394409
			vertex -25 0 75
		endloop
	endfacet
	facet normal 0 -1 0
		outer loop
			vertex -0.48036766052246094 0 70.12274217605591
			vertex 0 0 75
			vertex -25 0 75
		endloop
	endfacet
	facet normal 0 -1 0
		outer loop
			vertex -1.9030113220214844 0 65.4329137802124
			vertex -0.48036766052246094 0 70.12274217605591
			vertex -25 0 75
		endloop
	endfacet
	facet normal 0 -1 0
		outer loop
			vertex -4.213258743286133 0 61.11074447631836
			vertex -1.9030113220214844 0 65.4329137802124
			vertex -25 0 75
		endloop
	endfacet
	facet normal 0 -1 0
		outer loop
			vertex -7.322330474853516 0 57.322330474853516
			vertex -4.213258743286133 0 61.11074447631836
			vertex -25 0 75
		endloop
	endfacet
	facet normal 0 -1 0
		outer loop
			vertex -11.11074447631836 0 54.21325874328613
			vertex -7.322330474853516 0 57.322330474853516
			vertex -25 0 75
		endloop
	endfacet
	facet normal 0 -1 0
		outer loop
			vertex -15.432913780212402 0 51.903011322021484
			vertex -11.11074447631836 0 54.21325874328613
			vertex -25 0 75
		endloop
	endfacet
	facet normal 0 -1 0
		outer loop
			vertex -20.122742176055908 0 50.48036766052246
			vertex -15.432913780212402 0 51.903011322021484
			vertex -25 0 75
		endloop
	endfacet
	facet normal 0 -1 0
		outer loop
			vertex -24.999999999999996 0 50
			vertex -20.122742176055908 0 50.48036766052246
			vertex -25 0 75
		endloop
	endfacet
	facet normal 0 -1 0
		outer loop
			vertex -29.877257823944092 0 50.48036766052246
			vertex -24.999999999999996 0 50
			vertex -25 0 75
		endloop
	endfacet
	facet normal 0 -1 0
		outer loop
			vertex -34.5670862197876 0 51.903011322021484
			vertex -29.877257823944092 0 50.48036766052246
			vertex -25 0 75
		endloop
	endfacet
	facet normal 0 -1 0
		outer loop
			vertex -38.88925552368164 0 54.21325874328613
			vertex -34.5670862197876 0 51.903011322021484
			vertex -25 0 75
		endloop
	endfacet
	facet normal 0 -1 0
		outer loop
			vertex -42.677669525146484 0 57.322330474853516
			vertex -38.88925552368164 0 54.21325874328613
			vertex -25 0 75
		endloop
	endfacet
	facet normal 0 -1 0
		outer loop
			vertex -45.78674125671387 0 61.11074447631836
			vertex -42.677669525146484 0 57.322330474853516
			vertex -25 0 75
		endloop
	endfacet
	facet normal 0 -1 0
		outer loop
			vertex -48.096988677978516 0 65.4329137802124
			vertex -45.78674125671387 0 61.11074447631836
			vertex -25 0 75
		endloop
	endfacet
	facet normal 0 -1 0
		outer loop
			vertex -49.51963233947754 0 70.12274217605591
			vertex -48.096988677978516 0 65.4329137802124
			vertex -25 0 75
		endloop
	endfacet
	facet normal 0 -1 0
		outer loop
			vertex -50 0 75
			vertex -49.51963233947754 0 70.12274217605591
			vertex -25 0 75
		endloop
	endfacet
	facet normal 0 -1 0
		outer loop
			vertex -49.51963233947754 0 79.87725782394409
			vertex -50 0 75
			vertex -25 0 75
		endloop
	endfacet
	facet normal 0 -1 0
		outer loop
			vertex -48.096988677978516 0 84.5670862197876
			vertex -49.51963233947754 0 79.87725782394409
			vertex -25 0 75
		endloop
	endfacet
	facet normal 0 -1 0
		outer loop
			vertex -45.78674125671387 0 88.88925552368164
			vertex -48.096988677978516 0 84.5670862197876
			vertex -25 0 75
		endloop
	endfacet
	facet normal 0 -1 0
		outer loop
			vertex -42.677669525146484 0 92.67766952514648
			vertex -45.78674125671387 0 88.88925552368164
			vertex -25 0 75
		endloop
	endfacet
	facet normal 0 -1 0
		outer loop
			vertex -38.88925552368164 0 95.78674125671387
			vertex -42.677669525146484 0 92.67766952514648
			vertex -25 0 75
		endloop
	endfacet
	facet normal 0 -1 0
		outer loop
			vertex -34.5670862197876 0 98.09698867797852
			vertex -38.88925552368164 0 95.78674125671387
			vertex -25 0 75
		endloop
	endfacet
	facet normal 0 -1 0
		outer loop
			vertex -29.877257823944092 0 99.51963233947754
			vertex -34.5670862197876 0 98.09698867797852
			vertex -25 0 75
		endloop
	endfacet
	facet normal 0 -1 0
		outer loop
			vertex -25.000000000000007 0 100
			vertex -29.877257823944092 0 99.51963233947754
			vertex -25 0 75
		endloop
	endfacet
endsolid exported
